<?xml version="1.0" standalone="no"?>
<!DOCTYPE svg PUBLIC "-//W3C//DTD SVG 20010904//EN"
 "http://www.w3.org/TR/2001/REC-SVG-20010904/DTD/svg10.dtd">
<svg version="1.0" xmlns="http://www.w3.org/2000/svg"
 width="70.000000pt" height="70.000000pt" viewBox="0 0 70.000000 70.000000"
 preserveAspectRatio="xMidYMid meet">
<metadata>
Created by potrace 1.14, written by Peter Selinger 2001-2017
</metadata>
<g transform="translate(0.000000,70.000000) scale(0.100000,-0.100000)"
fill="#000000" stroke="none">
<path d="M170 675 c-7 -18 -17 -25 -35 -25 -23 0 -25 -4 -25 -40 0 -29 4 -40
15 -40 9 0 15 -10 16 -27 1 -16 2 -44 4 -63 1 -19 5 -107 10 -195 10 -216 13
-269 14 -277 0 -5 84 -8 186 -8 l185 0 1 38 c0 20 2 53 4 72 1 19 6 103 10
185 4 83 9 168 10 190 2 22 3 50 4 63 1 12 7 22 16 22 11 0 15 11 15 40 0 38
-2 40 -30 40 -25 0 -30 4 -30 25 l0 25 -180 0 -180 0 -10 -25z"/>
</g>
</svg>
