<svg width="87" height="34" viewBox="0 0 87 34" fill="none" xmlns="http://www.w3.org/2000/svg">
<path d="M1.35211 3.04224H22.3099L20.7459 33.8028H11.8347H2.75972L1.35211 3.04224Z" fill="#9366F9"/>
<rect y="2.48511" width="23.6072" height="3.88276" fill="#494949"/>
<path d="M3.2616 0H20.501L21.1223 2.64028H2.48505L3.2616 0Z" fill="#3E3E3E"/>
<path d="M11.9587 11.8313V17.7804L16.987 20.0272L11.9587 11.8313Z" fill="white" fill-opacity="0.602"/>
<path d="M11.9592 11.8315L6.93036 20.0275L11.9592 17.7806V11.8315Z" fill="white"/>
<path d="M11.9587 23.8825V27.9248L16.9903 20.9636L11.9587 23.8825Z" fill="white" fill-opacity="0.602"/>
<path d="M11.9586 27.9248V23.8818L6.92975 20.9636L11.9586 27.9248Z" fill="white"/>
<path d="M11.9587 22.9468L16.987 20.0272L11.9587 17.7817V22.9468Z" fill="white" fill-opacity="0.2"/>
<path d="M6.92975 20.0272L11.9586 22.9468V17.7817L6.92975 20.0272Z" fill="white" fill-opacity="0.602"/>
<path d="M33.9132 14.21C35.0705 14.21 36.0412 13.923 36.8252 13.349C37.6138 12.775 38.1692 11.998 38.4912 11.018L36.5732 10.486C36.3865 11.0927 36.0715 11.5663 35.6282 11.907C35.1848 12.2477 34.6132 12.418 33.9132 12.418C32.9565 12.418 32.2355 12.1053 31.7502 11.48C31.2695 10.85 31.0292 10.01 31.0292 8.96C31.0292 7.91 31.2695 7.07233 31.7502 6.447C32.2355 5.817 32.9565 5.502 33.9132 5.502C34.6132 5.502 35.1848 5.67233 35.6282 6.013C36.0715 6.349 36.3865 6.82267 36.5732 7.434L38.4912 6.902C38.1692 5.922 37.6138 5.145 36.8252 4.571C36.0412 3.997 35.0705 3.71 33.9132 3.71C32.9052 3.71 32.0348 3.92933 31.3022 4.368C30.5742 4.80667 30.0118 5.42033 29.6152 6.209C29.2232 6.99767 29.0272 7.91467 29.0272 8.96C29.0272 10.0053 29.2232 10.9223 29.6152 11.711C30.0118 12.4997 30.5742 13.1133 31.3022 13.552C32.0348 13.9907 32.9052 14.21 33.9132 14.21ZM40.0325 14H41.9365V10.584H44.0575L45.7165 14H47.8725L46.0525 10.262C46.6265 10.0007 47.0488 9.60633 47.3195 9.079C47.5948 8.547 47.7325 7.938 47.7325 7.252C47.7325 6.40267 47.5248 5.67933 47.1095 5.082C46.6942 4.48467 46.0338 4.116 45.1285 3.976C44.9978 3.95267 44.8485 3.93867 44.6805 3.934C44.5172 3.92467 44.3865 3.92 44.2885 3.92H40.0325V14ZM41.9365 8.806V5.698H44.2045C44.3025 5.698 44.4098 5.70267 44.5265 5.712C44.6432 5.72133 44.7505 5.74 44.8485 5.768C45.1052 5.838 45.3035 5.957 45.4435 6.125C45.5835 6.28833 45.6792 6.47267 45.7305 6.678C45.7865 6.87867 45.8145 7.07 45.8145 7.252C45.8145 7.434 45.7865 7.62767 45.7305 7.833C45.6792 8.03367 45.5835 8.218 45.4435 8.386C45.3035 8.54933 45.1052 8.666 44.8485 8.736C44.7505 8.764 44.6432 8.78267 44.5265 8.792C44.4098 8.80133 44.3025 8.806 44.2045 8.806H41.9365ZM51.6703 14H53.6023V9.898L57.0463 3.92H54.8203L52.6363 7.714L50.4523 3.92H48.2263L51.6703 9.898V14ZM58.0247 14H59.9287V10.584H62.2807C62.374 10.584 62.5047 10.5793 62.6727 10.57C62.8407 10.5607 62.99 10.5467 63.1207 10.528C64.0167 10.388 64.6747 10.0193 65.0947 9.422C65.5147 8.82 65.7247 8.09667 65.7247 7.252C65.7247 6.40267 65.517 5.67933 65.1017 5.082C64.6863 4.48467 64.026 4.116 63.1207 3.976C62.99 3.95267 62.8407 3.93867 62.6727 3.934C62.5093 3.92467 62.3787 3.92 62.2807 3.92H58.0247V14ZM59.9287 8.806V5.698H62.1967C62.2947 5.698 62.402 5.70267 62.5187 5.712C62.6353 5.72133 62.7427 5.74 62.8407 5.768C63.0973 5.838 63.2957 5.957 63.4357 6.125C63.5757 6.28833 63.6713 6.47267 63.7227 6.678C63.7787 6.87867 63.8067 7.07 63.8067 7.252C63.8067 7.434 63.7787 7.62767 63.7227 7.833C63.6713 8.03367 63.5757 8.218 63.4357 8.386C63.2957 8.54933 63.0973 8.666 62.8407 8.736C62.7427 8.764 62.6353 8.78267 62.5187 8.792C62.402 8.80133 62.2947 8.806 62.1967 8.806H59.9287ZM69.4681 14H71.3721V5.698H74.5501V3.92H66.2901V5.698H69.4681V14ZM80.0011 14.21C81.0091 14.21 81.8771 13.9907 82.6051 13.552C83.3377 13.1133 83.9001 12.4997 84.2921 11.711C84.6887 10.9223 84.8871 10.0053 84.8871 8.96C84.8871 7.91467 84.6887 6.99767 84.2921 6.209C83.9001 5.42033 83.3377 4.80667 82.6051 4.368C81.8771 3.92933 81.0091 3.71 80.0011 3.71C78.9931 3.71 78.1227 3.92933 77.3901 4.368C76.6621 4.80667 76.0997 5.42033 75.7031 6.209C75.3111 6.99767 75.1151 7.91467 75.1151 8.96C75.1151 10.0053 75.3111 10.9223 75.7031 11.711C76.0997 12.4997 76.6621 13.1133 77.3901 13.552C78.1227 13.9907 78.9931 14.21 80.0011 14.21ZM80.0011 12.418C79.0444 12.404 78.3257 12.0867 77.8451 11.466C77.3691 10.8453 77.1311 10.01 77.1311 8.96C77.1311 7.91 77.3691 7.06767 77.8451 6.433C78.3257 5.79833 79.0444 5.488 80.0011 5.502C80.9624 5.516 81.6811 5.83333 82.1571 6.454C82.6331 7.07467 82.8711 7.91 82.8711 8.96C82.8711 10.01 82.6331 10.8523 82.1571 11.487C81.6811 12.1217 80.9624 12.432 80.0011 12.418Z" fill="#9366F9"/>
<path d="M36.8252 13.349L36.5309 12.9447L36.5298 12.9456L36.8252 13.349ZM38.4912 11.018L38.9662 11.1741L39.1298 10.6762L38.6248 10.5362L38.4912 11.018ZM36.5732 10.486L36.7068 10.0042L36.2383 9.87423L36.0953 10.339L36.5732 10.486ZM35.6282 11.907L35.3235 11.5105H35.3235L35.6282 11.907ZM31.7502 11.48L31.3527 11.7833L31.3552 11.7866L31.7502 11.48ZM31.7502 6.447L31.3541 6.14186L31.3538 6.14229L31.7502 6.447ZM35.6282 6.013L35.3235 6.40948L35.3262 6.41148L35.6282 6.013ZM36.5732 7.434L36.095 7.58002L36.2373 8.04605L36.7068 7.91581L36.5732 7.434ZM38.4912 6.902L38.6248 7.38381L39.1298 7.24375L38.9662 6.74592L38.4912 6.902ZM36.8252 4.571L36.5298 4.97443L36.531 4.97526L36.8252 4.571ZM31.3022 4.368L31.0453 3.93901L31.0441 3.93974L31.3022 4.368ZM29.6152 6.209L29.1685 5.98433L29.1674 5.98645L29.6152 6.209ZM29.6152 11.711L29.1674 11.9335L29.1685 11.9357L29.6152 11.711ZM31.3022 13.552L31.0441 13.9803L31.0453 13.981L31.3022 13.552ZM33.9132 14.71C35.1559 14.71 36.2354 14.4005 37.1205 13.7524L36.5298 12.9456C35.8469 13.4455 34.9852 13.71 33.9132 13.71V14.71ZM37.1194 13.7533C37.9979 13.1139 38.6135 12.2476 38.9662 11.1741L38.0162 10.8619C37.7249 11.7484 37.2298 12.4361 36.531 12.9447L37.1194 13.7533ZM38.6248 10.5362L36.7068 10.0042L36.4395 10.9678L38.3575 11.4998L38.6248 10.5362ZM36.0953 10.339C35.9348 10.8605 35.6738 11.2414 35.3235 11.5105L35.9328 12.3035C36.4692 11.8913 36.8382 11.3249 37.0511 10.633L36.0953 10.339ZM35.3235 11.5105C34.9876 11.7687 34.5312 11.918 33.9132 11.918V12.918C34.6951 12.918 35.3821 12.7267 35.9328 12.3035L35.3235 11.5105ZM33.9132 11.918C33.0751 11.918 32.5158 11.6509 32.1452 11.1734L31.3552 11.7866C31.9553 12.5597 32.8379 12.918 33.9132 12.918V11.918ZM32.1477 11.1767C31.7522 10.6584 31.5292 9.93593 31.5292 8.96H30.5292C30.5292 10.0841 30.7868 11.0416 31.3527 11.7833L32.1477 11.1767ZM31.5292 8.96C31.5292 7.98383 31.7523 7.26464 32.1466 6.75171L31.3538 6.14229C30.7867 6.88002 30.5292 7.83617 30.5292 8.96H31.5292ZM32.1463 6.75214C32.5174 6.27043 33.0764 6.002 33.9132 6.002V5.002C32.8366 5.002 31.9537 5.36356 31.3541 6.14186L32.1463 6.75214ZM33.9132 6.002C34.5312 6.002 34.9876 6.15133 35.3235 6.40947L35.9328 5.61653C35.3821 5.19334 34.6951 5.002 33.9132 5.002V6.002ZM35.3262 6.41148C35.6736 6.67479 35.9343 7.05372 36.095 7.58002L37.0514 7.28798C36.8388 6.59162 36.4694 6.02321 35.9302 5.61451L35.3262 6.41148ZM36.7068 7.91581L38.6248 7.38381L38.3575 6.42019L36.4395 6.95219L36.7068 7.91581ZM38.9662 6.74592C38.6135 5.67237 37.9979 4.80612 37.1194 4.16673L36.531 4.97526C37.2298 5.48388 37.7249 6.17163 38.0162 7.05808L38.9662 6.74592ZM37.1205 4.16757C36.2354 3.51953 35.1559 3.21 33.9132 3.21V4.21C34.9852 4.21 35.8469 4.47447 36.5298 4.97443L37.1205 4.16757ZM33.9132 3.21C32.8312 3.21 31.8686 3.44609 31.0453 3.93901L31.559 4.79699C32.2011 4.41258 32.9792 4.21 33.9132 4.21V3.21ZM31.0441 3.93974C30.2321 4.42905 29.6058 5.11479 29.1685 5.98434L30.0619 6.43366C30.4178 5.72588 30.9163 5.18428 31.5602 4.79626L31.0441 3.93974ZM29.1674 5.98645C28.7352 6.85605 28.5272 7.85177 28.5272 8.96H29.5272C29.5272 7.97756 29.7111 7.13928 30.0629 6.43155L29.1674 5.98645ZM28.5272 8.96C28.5272 10.0682 28.7352 11.0639 29.1674 11.9335L30.0629 11.4885C29.7111 10.7807 29.5272 9.94244 29.5272 8.96H28.5272ZM29.1685 11.9357C29.6058 12.8052 30.2321 13.4909 31.0441 13.9803L31.5602 13.1237C30.9163 12.7357 30.4178 12.1941 30.0619 11.4863L29.1685 11.9357ZM31.0453 13.981C31.8686 14.4739 32.8312 14.71 33.9132 14.71V13.71C32.9792 13.71 32.2011 13.5074 31.559 13.123L31.0453 13.981ZM40.0325 14H39.5325V14.5H40.0325V14ZM41.9365 14V14.5H42.4365V14H41.9365ZM41.9365 10.584V10.084H41.4365V10.584H41.9365ZM44.0575 10.584L44.5073 10.3656L44.3705 10.084H44.0575V10.584ZM45.7165 14L45.2667 14.2184L45.4035 14.5H45.7165V14ZM47.8725 14V14.5H48.6721L48.322 13.7811L47.8725 14ZM46.0525 10.262L45.8453 9.80694L45.3783 10.0196L45.6029 10.4809L46.0525 10.262ZM47.3195 9.079L46.8754 8.84918L46.8747 8.85068L47.3195 9.079ZM45.1285 3.976L45.0406 4.46835L45.0521 4.47013L45.1285 3.976ZM44.6805 3.934L44.652 4.43319L44.6593 4.4336L44.6666 4.43381L44.6805 3.934ZM40.0325 3.92V3.42H39.5325V3.92H40.0325ZM41.9365 8.806H41.4365V9.306H41.9365V8.806ZM41.9365 5.698V5.198H41.4365V5.698H41.9365ZM44.5265 5.712L44.4866 6.21041L44.4866 6.21041L44.5265 5.712ZM44.8485 5.768L44.7111 6.2488L44.7169 6.25038L44.8485 5.768ZM45.4435 6.125L45.0593 6.44512L45.0639 6.4504L45.4435 6.125ZM45.7305 6.678L45.2452 6.79931L45.2489 6.8124L45.7305 6.678ZM45.7305 7.833L45.248 7.70143L45.2461 7.70908L45.7305 7.833ZM45.4435 8.386L45.8232 8.71143L45.8276 8.70609L45.4435 8.386ZM44.8485 8.736L44.7169 8.25358L44.7111 8.25524L44.8485 8.736ZM44.5265 8.792L44.5664 9.29041H44.5664L44.5265 8.792ZM40.0325 14.5H41.9365V13.5H40.0325V14.5ZM42.4365 14V10.584H41.4365V14H42.4365ZM41.9365 11.084H44.0575V10.084H41.9365V11.084ZM43.6077 10.8024L45.2667 14.2184L46.1663 13.7816L44.5073 10.3656L43.6077 10.8024ZM45.7165 14.5H47.8725V13.5H45.7165V14.5ZM48.322 13.7811L46.502 10.0431L45.6029 10.4809L47.4229 14.2189L48.322 13.7811ZM46.2597 10.7171C46.9291 10.4123 47.4388 9.9415 47.7643 9.30732L46.8747 8.85068C46.6588 9.27116 46.3239 9.58907 45.8453 9.80694L46.2597 10.7171ZM47.7635 9.30882C48.0807 8.69609 48.2325 8.00629 48.2325 7.252H47.2325C47.2325 7.86971 47.109 8.39791 46.8754 8.84918L47.7635 9.30882ZM48.2325 7.252C48.2325 6.31818 48.0029 5.49103 47.52 4.79656L46.699 5.36744C47.0468 5.86764 47.2325 6.48715 47.2325 7.252H48.2325ZM47.52 4.79656C47.0074 4.05931 46.2083 3.63703 45.2049 3.48187L45.0521 4.47013C45.8594 4.59497 46.3809 4.91002 46.699 5.36744L47.52 4.79656ZM45.2164 3.48379C45.0558 3.45512 44.881 3.43938 44.6944 3.43419L44.6666 4.43381C44.816 4.43796 44.9398 4.45022 45.0406 4.46821L45.2164 3.48379ZM44.709 3.43481C44.5415 3.42524 44.4002 3.42 44.2885 3.42V4.42C44.3728 4.42 44.4928 4.42409 44.652 4.43319L44.709 3.43481ZM44.2885 3.42H40.0325V4.42H44.2885V3.42ZM39.5325 3.92V14H40.5325V3.92H39.5325ZM42.4365 8.806V5.698H41.4365V8.806H42.4365ZM41.9365 6.198H44.2045V5.198H41.9365V6.198ZM44.2045 6.198C44.2869 6.198 44.3808 6.20194 44.4866 6.21041L44.5664 5.21359C44.4389 5.20339 44.3181 5.198 44.2045 5.198V6.198ZM44.4866 6.21041C44.575 6.21748 44.6492 6.23108 44.7111 6.24876L44.9859 5.28724C44.8517 5.24892 44.7113 5.22519 44.5664 5.21359L44.4866 6.21041ZM44.7169 6.25038C44.8965 6.29936 44.998 6.37147 45.0594 6.44509L45.8276 5.80491C45.6089 5.54253 45.3138 5.37664 44.98 5.28562L44.7169 6.25038ZM45.0639 6.4504C45.1542 6.5558 45.2132 6.67051 45.2454 6.79927L46.2156 6.55673C46.1451 6.27482 46.0128 6.02087 45.8231 5.7996L45.0639 6.4504ZM45.2489 6.8124C45.2944 6.9755 45.3145 7.12143 45.3145 7.252H46.3145C46.3145 7.01857 46.2786 6.78183 46.2121 6.5436L45.2489 6.8124ZM45.3145 7.252C45.3145 7.3828 45.2943 7.53193 45.2481 7.70144L46.2129 7.96456C46.2786 7.7234 46.3145 7.4852 46.3145 7.252H45.3145ZM45.2461 7.70908C45.2142 7.83371 45.1545 7.95177 45.0594 8.06591L45.8276 8.70609C46.0125 8.48423 46.1441 8.23362 46.2149 7.95692L45.2461 7.70908ZM45.0639 8.0606C45.0029 8.13168 44.9001 8.20367 44.7169 8.25362L44.98 9.21838C45.3102 9.12833 45.604 8.96699 45.8231 8.7114L45.0639 8.0606ZM44.7111 8.25524C44.6492 8.27292 44.575 8.28652 44.4866 8.29359L44.5664 9.29041C44.7113 9.27881 44.8517 9.25508 44.9859 9.21676L44.7111 8.25524ZM44.4866 8.29359C44.3808 8.30206 44.2869 8.306 44.2045 8.306V9.306C44.3181 9.306 44.4389 9.30061 44.5664 9.29041L44.4866 8.29359ZM44.2045 8.306H41.9365V9.306H44.2045V8.306ZM51.6703 14H51.1703V14.5H51.6703V14ZM53.6023 14V14.5H54.1023V14H53.6023ZM53.6023 9.898L53.1691 9.6484L53.1023 9.76427V9.898H53.6023ZM57.0463 3.92L57.4796 4.1696L57.9114 3.42H57.0463V3.92ZM54.8203 3.92V3.42H54.5312L54.387 3.67055L54.8203 3.92ZM52.6363 7.714L52.203 7.96345L52.6363 8.71622L53.0697 7.96345L52.6363 7.714ZM50.4523 3.92L50.8857 3.67055L50.7414 3.42H50.4523V3.92ZM48.2263 3.92V3.42H47.3612L47.7931 4.1696L48.2263 3.92ZM51.6703 9.898H52.1703V9.76427L52.1036 9.6484L51.6703 9.898ZM51.6703 14.5H53.6023V13.5H51.6703V14.5ZM54.1023 14V9.898H53.1023V14H54.1023ZM54.0356 10.1476L57.4796 4.1696L56.6131 3.6704L53.1691 9.6484L54.0356 10.1476ZM57.0463 3.42H54.8203V4.42H57.0463V3.42ZM54.387 3.67055L52.203 7.46455L53.0697 7.96345L55.2537 4.16945L54.387 3.67055ZM53.0697 7.46455L50.8857 3.67055L50.019 4.16945L52.203 7.96345L53.0697 7.46455ZM50.4523 3.42H48.2263V4.42H50.4523V3.42ZM47.7931 4.1696L51.2371 10.1476L52.1036 9.6484L48.6596 3.6704L47.7931 4.1696ZM51.1703 9.898V14H52.1703V9.898H51.1703ZM58.0247 14H57.5247V14.5H58.0247V14ZM59.9287 14V14.5H60.4287V14H59.9287ZM59.9287 10.584V10.084H59.4287V10.584H59.9287ZM62.6727 10.57L62.7004 11.0692L62.6727 10.57ZM63.1207 10.528L63.1914 11.023L63.1979 11.022L63.1207 10.528ZM65.0947 9.422L65.5037 9.70959L65.5047 9.70809L65.0947 9.422ZM63.1207 3.976L63.0328 4.46835L63.0443 4.47013L63.1207 3.976ZM62.6727 3.934L62.6442 4.43319L62.6515 4.4336L62.6588 4.43381L62.6727 3.934ZM58.0247 3.92V3.42H57.5247V3.92H58.0247ZM59.9287 8.806H59.4287V9.306H59.9287V8.806ZM59.9287 5.698V5.198H59.4287V5.698H59.9287ZM62.5187 5.712L62.4788 6.21041V6.21041L62.5187 5.712ZM62.8407 5.768L62.7033 6.2488L62.7091 6.25038L62.8407 5.768ZM63.4357 6.125L63.0515 6.44512L63.056 6.4504L63.4357 6.125ZM63.7227 6.678L63.2374 6.79931L63.2411 6.8124L63.7227 6.678ZM63.7227 7.833L63.2402 7.70143L63.2383 7.70908L63.7227 7.833ZM63.4357 8.386L63.8153 8.71143L63.8198 8.70609L63.4357 8.386ZM62.8407 8.736L62.7091 8.25358L62.7033 8.25524L62.8407 8.736ZM62.5187 8.792L62.5586 9.29041L62.5187 8.792ZM58.0247 14.5H59.9287V13.5H58.0247V14.5ZM60.4287 14V10.584H59.4287V14H60.4287ZM59.9287 11.084H62.2807V10.084H59.9287V11.084ZM62.2807 11.084C62.3878 11.084 62.5292 11.0787 62.7004 11.0692L62.6449 10.0708C62.4801 10.0799 62.3602 10.084 62.2807 10.084V11.084ZM62.7004 11.0692C62.8791 11.0593 63.0432 11.0441 63.1914 11.023L63.05 10.033C62.9368 10.0492 62.8022 10.062 62.6449 10.0708L62.7004 11.0692ZM63.1979 11.022C64.1934 10.8665 64.9876 10.4435 65.5037 9.70959L64.6857 9.13441C64.3617 9.59512 63.84 9.90954 63.0435 10.034L63.1979 11.022ZM65.5047 9.70809C65.9918 9.00999 66.2247 8.18305 66.2247 7.252H65.2247C65.2247 8.01028 65.0376 8.63 64.6846 9.13591L65.5047 9.70809ZM66.2247 7.252C66.2247 6.31818 65.9951 5.49103 65.5122 4.79656L64.6912 5.36744C65.039 5.86764 65.2247 6.48715 65.2247 7.252H66.2247ZM65.5122 4.79656C64.9996 4.05931 64.2004 3.63703 63.1971 3.48187L63.0443 4.47013C63.8516 4.59497 64.3731 4.91002 64.6912 5.36744L65.5122 4.79656ZM63.2086 3.48379C63.048 3.45512 62.8732 3.43938 62.6866 3.43419L62.6588 4.43381C62.8082 4.43796 62.932 4.45022 63.0328 4.46821L63.2086 3.48379ZM62.7012 3.43481C62.5337 3.42524 62.3924 3.42 62.2807 3.42V4.42C62.365 4.42 62.485 4.42409 62.6442 4.43319L62.7012 3.43481ZM62.2807 3.42H58.0247V4.42H62.2807V3.42ZM57.5247 3.92V14H58.5247V3.92H57.5247ZM60.4287 8.806V5.698H59.4287V8.806H60.4287ZM59.9287 6.198H62.1967V5.198H59.9287V6.198ZM62.1967 6.198C62.2791 6.198 62.3729 6.20194 62.4788 6.21041L62.5586 5.21359C62.4311 5.20339 62.3102 5.198 62.1967 5.198V6.198ZM62.4788 6.21041C62.5672 6.21748 62.6414 6.23108 62.7033 6.24876L62.978 5.28724C62.8439 5.24892 62.7035 5.22519 62.5586 5.21359L62.4788 6.21041ZM62.7091 6.25038C62.8887 6.29936 62.9902 6.37147 63.0516 6.44509L63.8198 5.80491C63.6011 5.54253 63.306 5.37664 62.9722 5.28562L62.7091 6.25038ZM63.056 6.4504C63.1464 6.5558 63.2054 6.67051 63.2376 6.79927L64.2077 6.55673C64.1373 6.27482 64.005 6.02087 63.8153 5.7996L63.056 6.4504ZM63.2411 6.8124C63.2866 6.9755 63.3067 7.12143 63.3067 7.252H64.3067C64.3067 7.01857 64.2708 6.78183 64.2043 6.5436L63.2411 6.8124ZM63.3067 7.252C63.3067 7.3828 63.2865 7.53193 63.2403 7.70144L64.2051 7.96456C64.2708 7.7234 64.3067 7.4852 64.3067 7.252H63.3067ZM63.2383 7.70908C63.2064 7.83371 63.1467 7.95177 63.0516 8.06591L63.8198 8.70609C64.0047 8.48423 64.1363 8.23362 64.2071 7.95692L63.2383 7.70908ZM63.056 8.0606C62.9951 8.13168 62.8923 8.20367 62.7091 8.25362L62.9722 9.21838C63.3024 9.12833 63.5962 8.96699 63.8153 8.7114L63.056 8.0606ZM62.7033 8.25524C62.6414 8.27292 62.5672 8.28652 62.4788 8.29359L62.5586 9.29041C62.7035 9.27881 62.8439 9.25508 62.978 9.21676L62.7033 8.25524ZM62.4788 8.29359C62.3729 8.30206 62.2791 8.306 62.1967 8.306V9.306C62.3102 9.306 62.4311 9.30061 62.5586 9.29041L62.4788 8.29359ZM62.1967 8.306H59.9287V9.306H62.1967V8.306ZM69.4681 14H68.9681V14.5H69.4681V14ZM71.3721 14V14.5H71.8721V14H71.3721ZM71.3721 5.698V5.198H70.8721V5.698H71.3721ZM74.5501 5.698V6.198H75.0501V5.698H74.5501ZM74.5501 3.92H75.0501V3.42H74.5501V3.92ZM66.2901 3.92V3.42H65.7901V3.92H66.2901ZM66.2901 5.698H65.7901V6.198H66.2901V5.698ZM69.4681 5.698H69.9681V5.198H69.4681V5.698ZM69.4681 14.5H71.3721V13.5H69.4681V14.5ZM71.8721 14V5.698H70.8721V14H71.8721ZM71.3721 6.198H74.5501V5.198H71.3721V6.198ZM75.0501 5.698V3.92H74.0501V5.698H75.0501ZM74.5501 3.42H66.2901V4.42H74.5501V3.42ZM65.7901 3.92V5.698H66.7901V3.92H65.7901ZM66.2901 6.198H69.4681V5.198H66.2901V6.198ZM68.9681 5.698V14H69.9681V5.698H68.9681ZM82.6051 13.552L82.3482 13.123L82.347 13.1237L82.6051 13.552ZM84.2921 11.711L83.8454 11.4863L83.8443 11.4885L84.2921 11.711ZM84.2921 6.209L83.8443 6.43155L83.8454 6.43366L84.2921 6.209ZM82.6051 4.368L82.347 4.79626L82.3482 4.79699L82.6051 4.368ZM77.3901 4.368L77.1332 3.93901L77.132 3.93974L77.3901 4.368ZM75.7031 6.209L75.2564 5.98433L75.2553 5.98645L75.7031 6.209ZM75.7031 11.711L75.2553 11.9335L75.2564 11.9357L75.7031 11.711ZM77.3901 13.552L77.132 13.9803L77.1332 13.981L77.3901 13.552ZM80.0011 12.418L79.9938 12.9179H79.9938L80.0011 12.418ZM77.8451 11.466L77.4483 11.7703L77.4498 11.7721L77.8451 11.466ZM77.8451 6.433L77.4465 6.13112L77.4451 6.133L77.8451 6.433ZM80.0011 5.502L79.9938 6.00195L79.9938 6.00195L80.0011 5.502ZM82.1571 6.454L82.5538 6.14972L82.1571 6.454ZM82.1571 11.487L82.5571 11.787L82.1571 11.487ZM80.0011 14.71C81.083 14.71 82.0438 14.4739 82.8631 13.9803L82.347 13.1237C81.7103 13.5074 80.9352 13.71 80.0011 13.71V14.71ZM82.8619 13.981C83.6793 13.4916 84.3066 12.805 84.7398 11.9335L83.8443 11.4885C83.4935 12.1943 82.9961 12.7351 82.3482 13.123L82.8619 13.981ZM84.7388 11.9357C85.1764 11.0656 85.3871 10.0691 85.3871 8.96H84.3871C84.3871 9.94159 84.2011 10.7791 83.8454 11.4863L84.7388 11.9357ZM85.3871 8.96C85.3871 7.85093 85.1764 6.85443 84.7388 5.98434L83.8454 6.43366C84.2011 7.1409 84.3871 7.97841 84.3871 8.96H85.3871ZM84.7398 5.98645C84.3066 5.11496 83.6793 4.42842 82.8619 3.93901L82.3482 4.79699C82.9961 5.18492 83.4935 5.7257 83.8443 6.43155L84.7398 5.98645ZM82.8631 3.93974C82.0438 3.44605 81.083 3.21 80.0011 3.21V4.21C80.9352 4.21 81.7103 4.41261 82.347 4.79626L82.8631 3.93974ZM80.0011 3.21C78.9191 3.21 77.9565 3.44609 77.1332 3.93901L77.6469 4.79699C78.289 4.41258 79.0671 4.21 80.0011 4.21V3.21ZM77.132 3.93974C76.32 4.42905 75.6937 5.11479 75.2564 5.98434L76.1498 6.43366C76.5057 5.72588 77.0042 5.18428 77.6481 4.79626L77.132 3.93974ZM75.2553 5.98645C74.8231 6.85605 74.6151 7.85177 74.6151 8.96H75.6151C75.6151 7.97756 75.799 7.13928 76.1508 6.43155L75.2553 5.98645ZM74.6151 8.96C74.6151 10.0682 74.8231 11.0639 75.2553 11.9335L76.1508 11.4885C75.799 10.7807 75.6151 9.94244 75.6151 8.96H74.6151ZM75.2564 11.9357C75.6937 12.8052 76.32 13.4909 77.132 13.9803L77.6481 13.1237C77.0042 12.7357 76.5057 12.1941 76.1498 11.4863L75.2564 11.9357ZM77.1332 13.981C77.9565 14.4739 78.9191 14.71 80.0011 14.71V13.71C79.0671 13.71 78.289 13.5074 77.6469 13.123L77.1332 13.981ZM80.0084 11.9181C79.167 11.9057 78.6075 11.6339 78.2404 11.1599L77.4498 11.7721C78.044 12.5394 78.9218 12.9023 79.9938 12.9179L80.0084 11.9181ZM78.2418 11.1617C77.8525 10.654 77.6311 9.9374 77.6311 8.96H76.6311C76.6311 10.0826 76.8857 11.0367 77.4483 11.7703L78.2418 11.1617ZM77.6311 8.96C77.6311 7.98334 77.8522 7.25687 78.2451 6.733L77.4451 6.133C76.886 6.87847 76.6311 7.83666 76.6311 8.96H77.6311ZM78.2437 6.73487C78.6083 6.2534 79.16 5.98974 79.9938 6.00195L80.0084 5.00205C78.9288 4.98625 78.0432 5.34327 77.4465 6.13113L78.2437 6.73487ZM79.9938 6.00195C80.8409 6.01428 81.3986 6.28669 81.7603 6.75828L82.5538 6.14972C81.9635 5.37997 81.0839 5.01772 80.0084 5.00205L79.9938 6.00195ZM81.7603 6.75828C82.1497 7.26599 82.3711 7.9826 82.3711 8.96H83.3711C83.3711 7.8374 83.1165 6.88334 82.5538 6.14972L81.7603 6.75828ZM82.3711 8.96C82.3711 9.93666 82.15 10.6631 81.7571 11.187L82.5571 11.787C83.1162 11.0415 83.3711 10.0833 83.3711 8.96H82.3711ZM81.7571 11.187C81.3979 11.666 80.8479 11.9303 80.0084 11.9181L79.9938 12.9179C81.0769 12.9337 81.9643 12.5774 82.5571 11.787L81.7571 11.187Z" fill="#9366F9"/>
<path d="M34.306 31.21C35.4633 31.21 36.434 30.923 37.218 30.349C38.0067 29.775 38.562 28.998 38.884 28.018L36.966 27.486C36.7793 28.0927 36.4643 28.5663 36.021 28.907C35.5777 29.2477 35.006 29.418 34.306 29.418C33.3493 29.418 32.6283 29.1053 32.143 28.48C31.6623 27.85 31.422 27.01 31.422 25.96C31.422 24.91 31.6623 24.0723 32.143 23.447C32.6283 22.817 33.3493 22.502 34.306 22.502C35.006 22.502 35.5777 22.6723 36.021 23.013C36.4643 23.349 36.7793 23.8227 36.966 24.434L38.884 23.902C38.562 22.922 38.0067 22.145 37.218 21.571C36.434 20.997 35.4633 20.71 34.306 20.71C33.298 20.71 32.4277 20.9293 31.695 21.368C30.967 21.8067 30.4047 22.4203 30.008 23.209C29.616 23.9977 29.42 24.9147 29.42 25.96C29.42 27.0053 29.616 27.9223 30.008 28.711C30.4047 29.4997 30.967 30.1133 31.695 30.552C32.4277 30.9907 33.298 31.21 34.306 31.21ZM44.7513 31.21C45.7593 31.21 46.6273 30.9907 47.3553 30.552C48.088 30.1133 48.6503 29.4997 49.0423 28.711C49.439 27.9223 49.6373 27.0053 49.6373 25.96C49.6373 24.9147 49.439 23.9977 49.0423 23.209C48.6503 22.4203 48.088 21.8067 47.3553 21.368C46.6273 20.9293 45.7593 20.71 44.7513 20.71C43.7433 20.71 42.873 20.9293 42.1403 21.368C41.4123 21.8067 40.85 22.4203 40.4533 23.209C40.0613 23.9977 39.8653 24.9147 39.8653 25.96C39.8653 27.0053 40.0613 27.9223 40.4533 28.711C40.85 29.4997 41.4123 30.1133 42.1403 30.552C42.873 30.9907 43.7433 31.21 44.7513 31.21ZM44.7513 29.418C43.7946 29.404 43.076 29.0867 42.5953 28.466C42.1193 27.8453 41.8813 27.01 41.8813 25.96C41.8813 24.91 42.1193 24.0677 42.5953 23.433C43.076 22.7983 43.7946 22.488 44.7513 22.502C45.7126 22.516 46.4313 22.8333 46.9073 23.454C47.3833 24.0747 47.6213 24.91 47.6213 25.96C47.6213 27.01 47.3833 27.8523 46.9073 28.487C46.4313 29.1217 45.7126 29.432 44.7513 29.418ZM51.0347 31H52.9387V26.912H56.3547V25.008H52.9387V22.824H57.1947V20.92H51.0347V31ZM58.4585 31H60.3625V26.912H63.7785V25.008H60.3625V22.824H64.6185V20.92H58.4585V31ZM65.8823 31H72.4623V29.222H67.7863V26.632H71.6223V24.854H67.7863V22.698H72.4623V20.92H65.8823V31ZM74.1402 31H80.7202V29.222H76.0442V26.632H79.8802V24.854H76.0442V22.698H80.7202V20.92H74.1402V31Z" fill="#16161A"/>
<path d="M37.218 30.349L36.9238 29.9447L36.9226 29.9456L37.218 30.349ZM38.884 28.018L39.359 28.1741L39.5226 27.6762L39.0176 27.5362L38.884 28.018ZM36.966 27.486L37.0996 27.0042L36.6311 26.8742L36.4881 27.339L36.966 27.486ZM36.021 28.907L35.7163 28.5105H35.7163L36.021 28.907ZM32.143 28.48L31.7455 28.7833L31.748 28.7866L32.143 28.48ZM32.143 23.447L31.7469 23.1419L31.7466 23.1423L32.143 23.447ZM36.021 23.013L35.7163 23.4095L35.719 23.4115L36.021 23.013ZM36.966 24.434L36.4878 24.58L36.6301 25.046L37.0996 24.9158L36.966 24.434ZM38.884 23.902L39.0176 24.3838L39.5226 24.2438L39.359 23.7459L38.884 23.902ZM37.218 21.571L36.9226 21.9744L36.9238 21.9753L37.218 21.571ZM31.695 21.368L31.4382 20.939L31.4369 20.9397L31.695 21.368ZM30.008 23.209L29.5613 22.9843L29.5603 22.9865L30.008 23.209ZM30.008 28.711L29.5603 28.9335L29.5613 28.9357L30.008 28.711ZM31.695 30.552L31.4369 30.9803L31.4382 30.981L31.695 30.552ZM34.306 31.71C35.5487 31.71 36.6282 31.4005 37.5134 30.7524L36.9226 29.9456C36.2398 30.4455 35.378 30.71 34.306 30.71V31.71ZM37.5122 30.7533C38.3907 30.1139 39.0063 29.2476 39.359 28.1741L38.409 27.8619C38.1177 28.7484 37.6226 29.4361 36.9238 29.9447L37.5122 30.7533ZM39.0176 27.5362L37.0996 27.0042L36.8324 27.9678L38.7504 28.4998L39.0176 27.5362ZM36.4881 27.339C36.3276 27.8605 36.0666 28.2414 35.7163 28.5105L36.3257 29.3035C36.862 28.8913 37.231 28.3249 37.4439 27.633L36.4881 27.339ZM35.7163 28.5105C35.3804 28.7687 34.9241 28.918 34.306 28.918V29.918C35.0879 29.918 35.7749 29.7267 36.3257 29.3035L35.7163 28.5105ZM34.306 28.918C33.4679 28.918 32.9086 28.6509 32.538 28.1734L31.748 28.7866C32.3481 29.5597 33.2308 29.918 34.306 29.918V28.918ZM32.5405 28.1767C32.1451 27.6584 31.922 26.9359 31.922 25.96H30.922C30.922 27.0841 31.1796 28.0416 31.7455 28.7833L32.5405 28.1767ZM31.922 25.96C31.922 24.9838 32.1452 24.2646 32.5394 23.7517L31.7466 23.1423C31.1795 23.88 30.922 24.8362 30.922 25.96H31.922ZM32.5391 23.7521C32.9102 23.2704 33.4693 23.002 34.306 23.002V22.002C33.2294 22.002 32.3465 22.3636 31.7469 23.1419L32.5391 23.7521ZM34.306 23.002C34.9241 23.002 35.3804 23.1513 35.7163 23.4095L36.3257 22.6165C35.7749 22.1933 35.0879 22.002 34.306 22.002V23.002ZM35.719 23.4115C36.0664 23.6748 36.3271 24.0537 36.4878 24.58L37.4442 24.288C37.2316 23.5916 36.8623 23.0232 36.323 22.6145L35.719 23.4115ZM37.0996 24.9158L39.0176 24.3838L38.7504 23.4202L36.8324 23.9522L37.0996 24.9158ZM39.359 23.7459C39.0063 22.6724 38.3907 21.8061 37.5122 21.1667L36.9238 21.9753C37.6226 22.4839 38.1177 23.1716 38.409 24.0581L39.359 23.7459ZM37.5134 21.1676C36.6282 20.5195 35.5487 20.21 34.306 20.21V21.21C35.378 21.21 36.2398 21.4745 36.9226 21.9744L37.5134 21.1676ZM34.306 20.21C33.224 20.21 32.2614 20.4461 31.4382 20.939L31.9518 21.797C32.5939 21.4126 33.372 21.21 34.306 21.21V20.21ZM31.4369 20.9397C30.6249 21.4291 29.9987 22.1148 29.5613 22.9843L30.4547 23.4337C30.8107 22.7259 31.3091 22.1843 31.9531 21.7963L31.4369 20.9397ZM29.5603 22.9865C29.128 23.8561 28.92 24.8518 28.92 25.96H29.92C29.92 24.9776 30.104 24.1393 30.4557 23.4315L29.5603 22.9865ZM28.92 25.96C28.92 27.0682 29.128 28.0639 29.5603 28.9335L30.4557 28.4885C30.104 27.7807 29.92 26.9424 29.92 25.96H28.92ZM29.5613 28.9357C29.9987 29.8052 30.6249 30.4909 31.4369 30.9803L31.9531 30.1237C31.3091 29.7357 30.8107 29.1941 30.4547 28.4863L29.5613 28.9357ZM31.4382 30.981C32.2614 31.4739 33.224 31.71 34.306 31.71V30.71C33.372 30.71 32.5939 30.5074 31.9518 30.123L31.4382 30.981ZM47.3553 30.552L47.0985 30.123L47.0973 30.1237L47.3553 30.552ZM49.0423 28.711L48.5956 28.4863L48.5946 28.4885L49.0423 28.711ZM49.0423 23.209L48.5946 23.4315L48.5956 23.4337L49.0423 23.209ZM47.3553 21.368L47.0973 21.7963L47.0985 21.797L47.3553 21.368ZM42.1403 21.368L41.8835 20.939L41.8823 20.9397L42.1403 21.368ZM40.4533 23.209L40.0066 22.9843L40.0056 22.9865L40.4533 23.209ZM40.4533 28.711L40.0056 28.9335L40.0066 28.9357L40.4533 28.711ZM42.1403 30.552L41.8823 30.9803L41.8835 30.981L42.1403 30.552ZM44.7513 29.418L44.744 29.9179H44.744L44.7513 29.418ZM42.5953 28.466L42.1986 28.7703L42.2 28.7721L42.5953 28.466ZM42.5953 23.433L42.1967 23.1311L42.1953 23.133L42.5953 23.433ZM44.7513 22.502L44.744 23.0019L44.744 23.0019L44.7513 22.502ZM46.9073 23.454L47.3041 23.1497L46.9073 23.454ZM46.9073 28.487L47.3073 28.787L46.9073 28.487ZM44.7513 31.71C45.8332 31.71 46.7941 31.4739 47.6134 30.9803L47.0973 30.1237C46.4606 30.5074 45.6854 30.71 44.7513 30.71V31.71ZM47.6122 30.981C48.4296 30.4916 49.0569 29.805 49.4901 28.9335L48.5946 28.4885C48.2437 29.1943 47.7464 29.7351 47.0985 30.123L47.6122 30.981ZM49.489 28.9357C49.9266 28.0656 50.1373 27.0691 50.1373 25.96H49.1373C49.1373 26.9416 48.9513 27.7791 48.5956 28.4863L49.489 28.9357ZM50.1373 25.96C50.1373 24.8509 49.9266 23.8544 49.489 22.9843L48.5956 23.4337C48.9513 24.1409 49.1373 24.9784 49.1373 25.96H50.1373ZM49.4901 22.9865C49.0569 22.115 48.4296 21.4284 47.6122 20.939L47.0985 21.797C47.7464 22.1849 48.2437 22.7257 48.5946 23.4315L49.4901 22.9865ZM47.6134 20.9397C46.7941 20.4461 45.8332 20.21 44.7513 20.21V21.21C45.6854 21.21 46.4606 21.4126 47.0973 21.7963L47.6134 20.9397ZM44.7513 20.21C43.6693 20.21 42.7068 20.4461 41.8835 20.939L42.3972 21.797C43.0392 21.4126 43.8173 21.21 44.7513 21.21V20.21ZM41.8823 20.9397C41.0702 21.4291 40.444 22.1148 40.0066 22.9843L40.9 23.4337C41.256 22.7259 41.7544 22.1843 42.3984 21.7963L41.8823 20.9397ZM40.0056 22.9865C39.5733 23.8561 39.3653 24.8518 39.3653 25.96H40.3653C40.3653 24.9776 40.5493 24.1393 40.9011 23.4315L40.0056 22.9865ZM39.3653 25.96C39.3653 27.0682 39.5733 28.0639 40.0056 28.9335L40.9011 28.4885C40.5493 27.7807 40.3653 26.9424 40.3653 25.96H39.3653ZM40.0066 28.9357C40.444 29.8052 41.0702 30.4909 41.8823 30.9803L42.3984 30.1237C41.7544 29.7357 41.256 29.1941 40.9 28.4863L40.0066 28.9357ZM41.8835 30.981C42.7068 31.4739 43.6693 31.71 44.7513 31.71V30.71C43.8173 30.71 43.0392 30.5074 42.3972 30.123L41.8835 30.981ZM44.7586 28.9181C43.9172 28.9057 43.3578 28.6339 42.9906 28.1599L42.2 28.7721C42.7942 29.5394 43.6721 29.9023 44.744 29.9179L44.7586 28.9181ZM42.9921 28.1617C42.6027 27.654 42.3813 26.9374 42.3813 25.96H41.3813C41.3813 27.0826 41.6359 28.0367 42.1986 28.7703L42.9921 28.1617ZM42.3813 25.96C42.3813 24.9833 42.6024 24.2569 42.9953 23.733L42.1953 23.133C41.6362 23.8785 41.3813 24.8367 41.3813 25.96H42.3813ZM42.9939 23.7349C43.3585 23.2534 43.9102 22.9897 44.744 23.0019L44.7586 22.0021C43.6791 21.9863 42.7934 22.3433 42.1967 23.1311L42.9939 23.7349ZM44.744 23.0019C45.5912 23.0143 46.1489 23.2867 46.5106 23.7583L47.3041 23.1497C46.7137 22.38 45.8341 22.0177 44.7586 22.0021L44.744 23.0019ZM46.5106 23.7583C46.8999 24.266 47.1213 24.9826 47.1213 25.96H48.1213C48.1213 24.8374 47.8667 23.8833 47.3041 23.1497L46.5106 23.7583ZM47.1213 25.96C47.1213 26.9367 46.9002 27.6631 46.5073 28.187L47.3073 28.787C47.8664 28.0415 48.1213 27.0833 48.1213 25.96H47.1213ZM46.5073 28.187C46.1481 28.666 45.5982 28.9303 44.7586 28.9181L44.744 29.9179C45.8271 29.9337 46.7145 29.5774 47.3073 28.787L46.5073 28.187ZM51.0347 31H50.5347V31.5H51.0347V31ZM52.9387 31V31.5H53.4387V31H52.9387ZM52.9387 26.912V26.412H52.4387V26.912H52.9387ZM56.3547 26.912V27.412H56.8547V26.912H56.3547ZM56.3547 25.008H56.8547V24.508H56.3547V25.008ZM52.9387 25.008H52.4387V25.508H52.9387V25.008ZM52.9387 22.824V22.324H52.4387V22.824H52.9387ZM57.1947 22.824V23.324H57.6947V22.824H57.1947ZM57.1947 20.92H57.6947V20.42H57.1947V20.92ZM51.0347 20.92V20.42H50.5347V20.92H51.0347ZM51.0347 31.5H52.9387V30.5H51.0347V31.5ZM53.4387 31V26.912H52.4387V31H53.4387ZM52.9387 27.412H56.3547V26.412H52.9387V27.412ZM56.8547 26.912V25.008H55.8547V26.912H56.8547ZM56.3547 24.508H52.9387V25.508H56.3547V24.508ZM53.4387 25.008V22.824H52.4387V25.008H53.4387ZM52.9387 23.324H57.1947V22.324H52.9387V23.324ZM57.6947 22.824V20.92H56.6947V22.824H57.6947ZM57.1947 20.42H51.0347V21.42H57.1947V20.42ZM50.5347 20.92V31H51.5347V20.92H50.5347ZM58.4585 31H57.9585V31.5H58.4585V31ZM60.3625 31V31.5H60.8625V31H60.3625ZM60.3625 26.912V26.412H59.8625V26.912H60.3625ZM63.7785 26.912V27.412H64.2785V26.912H63.7785ZM63.7785 25.008H64.2785V24.508H63.7785V25.008ZM60.3625 25.008H59.8625V25.508H60.3625V25.008ZM60.3625 22.824V22.324H59.8625V22.824H60.3625ZM64.6185 22.824V23.324H65.1185V22.824H64.6185ZM64.6185 20.92H65.1185V20.42H64.6185V20.92ZM58.4585 20.92V20.42H57.9585V20.92H58.4585ZM58.4585 31.5H60.3625V30.5H58.4585V31.5ZM60.8625 31V26.912H59.8625V31H60.8625ZM60.3625 27.412H63.7785V26.412H60.3625V27.412ZM64.2785 26.912V25.008H63.2785V26.912H64.2785ZM63.7785 24.508H60.3625V25.508H63.7785V24.508ZM60.8625 25.008V22.824H59.8625V25.008H60.8625ZM60.3625 23.324H64.6185V22.324H60.3625V23.324ZM65.1185 22.824V20.92H64.1185V22.824H65.1185ZM64.6185 20.42H58.4585V21.42H64.6185V20.42ZM57.9585 20.92V31H58.9585V20.92H57.9585ZM65.8823 31H65.3823V31.5H65.8823V31ZM72.4623 31V31.5H72.9623V31H72.4623ZM72.4623 29.222H72.9623V28.722H72.4623V29.222ZM67.7863 29.222H67.2863V29.722H67.7863V29.222ZM67.7863 26.632V26.132H67.2863V26.632H67.7863ZM71.6223 26.632V27.132H72.1223V26.632H71.6223ZM71.6223 24.854H72.1223V24.354H71.6223V24.854ZM67.7863 24.854H67.2863V25.354H67.7863V24.854ZM67.7863 22.698V22.198H67.2863V22.698H67.7863ZM72.4623 22.698V23.198H72.9623V22.698H72.4623ZM72.4623 20.92H72.9623V20.42H72.4623V20.92ZM65.8823 20.92V20.42H65.3823V20.92H65.8823ZM65.8823 31.5H72.4623V30.5H65.8823V31.5ZM72.9623 31V29.222H71.9623V31H72.9623ZM72.4623 28.722H67.7863V29.722H72.4623V28.722ZM68.2863 29.222V26.632H67.2863V29.222H68.2863ZM67.7863 27.132H71.6223V26.132H67.7863V27.132ZM72.1223 26.632V24.854H71.1223V26.632H72.1223ZM71.6223 24.354H67.7863V25.354H71.6223V24.354ZM68.2863 24.854V22.698H67.2863V24.854H68.2863ZM67.7863 23.198H72.4623V22.198H67.7863V23.198ZM72.9623 22.698V20.92H71.9623V22.698H72.9623ZM72.4623 20.42H65.8823V21.42H72.4623V20.42ZM65.3823 20.92V31H66.3823V20.92H65.3823ZM74.1402 31H73.6402V31.5H74.1402V31ZM80.7202 31V31.5H81.2202V31H80.7202ZM80.7202 29.222H81.2202V28.722H80.7202V29.222ZM76.0442 29.222H75.5442V29.722H76.0442V29.222ZM76.0442 26.632V26.132H75.5442V26.632H76.0442ZM79.8802 26.632V27.132H80.3802V26.632H79.8802ZM79.8802 24.854H80.3802V24.354H79.8802V24.854ZM76.0442 24.854H75.5442V25.354H76.0442V24.854ZM76.0442 22.698V22.198H75.5442V22.698H76.0442ZM80.7202 22.698V23.198H81.2202V22.698H80.7202ZM80.7202 20.92H81.2202V20.42H80.7202V20.92ZM74.1402 20.92V20.42H73.6402V20.92H74.1402ZM74.1402 31.5H80.7202V30.5H74.1402V31.5ZM81.2202 31V29.222H80.2202V31H81.2202ZM80.7202 28.722H76.0442V29.722H80.7202V28.722ZM76.5442 29.222V26.632H75.5442V29.222H76.5442ZM76.0442 27.132H79.8802V26.132H76.0442V27.132ZM80.3802 26.632V24.854H79.3802V26.632H80.3802ZM79.8802 24.354H76.0442V25.354H79.8802V24.354ZM76.5442 24.854V22.698H75.5442V24.854H76.5442ZM76.0442 23.198H80.7202V22.198H76.0442V23.198ZM81.2202 22.698V20.92H80.2202V22.698H81.2202ZM80.7202 20.42H74.1402V21.42H80.7202V20.42ZM73.6402 20.92V31H74.6402V20.92H73.6402Z" fill="#16161A"/>
</svg>
