<svg width="24" height="34" viewBox="0 0 24 34" fill="none" xmlns="http://www.w3.org/2000/svg">
<path d="M1.35211 3.04224H22.3099L20.7459 33.8028H11.8347H2.75972L1.35211 3.04224Z" fill="#9366F9"/>
<rect y="2.48511" width="23.6072" height="3.88276" fill="#494949"/>
<path d="M3.2616 0H20.501L21.1223 2.64028H2.48505L3.2616 0Z" fill="#3E3E3E"/>
<path d="M11.9587 11.8313V17.7804L16.987 20.0272L11.9587 11.8313Z" fill="white" fill-opacity="0.602"/>
<path d="M11.9592 11.8315L6.93036 20.0275L11.9592 17.7806V11.8315Z" fill="white"/>
<path d="M11.9587 23.8825V27.9248L16.9903 20.9636L11.9587 23.8825Z" fill="white" fill-opacity="0.602"/>
<path d="M11.9586 27.9248V23.8818L6.92975 20.9636L11.9586 27.9248Z" fill="white"/>
<path d="M11.9587 22.9468L16.987 20.0272L11.9587 17.7817V22.9468Z" fill="white" fill-opacity="0.2"/>
<path d="M6.92975 20.0272L11.9586 22.9468V17.7817L6.92975 20.0272Z" fill="white" fill-opacity="0.602"/>
</svg>
