<svg width="256" height="239" viewBox="0 0 256 239" fill="none" xmlns="http://www.w3.org/2000/svg">
<g clip-path="url(#clip0_407_1553)">
<g opacity="0.8">
<path d="M131.903 74.5277C156.412 74.5277 176.28 59.1985 176.28 40.2891C176.28 21.3797 156.412 6.05054 131.903 6.05054C107.394 6.05054 87.5259 21.3797 87.5259 40.2891C87.5259 59.1985 107.394 74.5277 131.903 74.5277Z" fill="url(#paint0_linear_407_1553)"/>
</g>
<path d="M131.541 73.8726C155.54 73.8726 174.996 58.7948 174.996 40.1953C174.996 21.5959 155.54 6.51807 131.541 6.51807C107.542 6.51807 88.0864 21.5959 88.0864 40.1953C88.0864 58.7948 107.542 73.8726 131.541 73.8726Z" fill="#9366F9"/>
<path opacity="0.1" d="M94.971 44.0954C94.971 25.4588 114.338 10.3506 138.23 10.3506C145.647 10.3095 152.991 11.8359 159.786 14.8311C152.183 9.66016 142.235 6.51807 131.348 6.51807C107.456 6.51807 88.0864 21.6263 88.0864 40.2628C88.0864 52.7764 96.8197 63.6992 109.794 69.5272C100.711 63.3403 94.971 54.2425 94.971 44.0954Z" fill="white"/>
<path opacity="0.2" d="M131.541 53.594L179.703 136.883L227.865 220.17H131.541H35.2168L83.3789 136.883L131.541 53.594Z" fill="#9366F9"/>
<g opacity="0.3">
<path d="M143.224 171.611L146.98 160.508C149.632 152.569 146.763 143.837 139.912 138.996L139.942 138.978C138.464 137.941 136.844 137.124 135.131 136.55L135.079 136.532L135.022 136.514C133.359 135.953 131.626 135.629 129.872 135.549C129.252 135.517 128.631 135.517 128.011 135.549C126.935 135.605 125.866 135.752 124.815 135.989C124.51 136.055 124.205 136.131 123.928 136.213C123.651 136.295 123.34 136.383 123.051 136.477C122.472 136.668 121.902 136.884 121.344 137.13C121.064 137.251 120.787 137.378 120.516 137.515C119.696 137.918 118.906 138.381 118.154 138.899C117.901 139.072 117.655 139.251 117.411 139.433C114.399 141.714 112.145 144.843 110.939 148.415L105.035 165.909C104.105 168.653 103.826 171.573 104.218 174.442C104.279 174.882 104.355 175.319 104.444 175.753C104.532 176.187 104.642 176.615 104.748 177.04C104.831 177.322 104.916 177.604 105.01 177.883C105.151 178.299 105.315 178.715 105.47 179.121C105.583 179.392 105.702 179.662 105.827 179.929C106.074 180.46 106.348 180.979 106.643 181.485C106.939 181.992 107.253 182.487 107.606 182.966C107.862 183.324 108.133 183.676 108.414 184.016C108.791 184.471 109.188 184.927 109.608 185.33C111.428 187.157 113.606 188.592 116.006 189.545L116.11 189.588C116.239 189.36 116.381 189.14 116.536 188.929C117.451 187.682 119.041 186.805 120.555 187.133C120.665 187.157 120.775 187.19 120.884 187.224C121.652 187.494 122.408 187.976 123.148 188.213C123.693 188.457 124.319 188.449 124.857 188.192C126.338 187.406 125.79 184.927 127.06 183.84C127.119 183.79 127.181 183.743 127.246 183.701C127.228 183.679 127.212 183.655 127.197 183.631C128.178 183.024 129.537 183.427 130.668 183.819C131.886 184.247 133.477 184.535 134.324 183.543C134.897 182.863 134.854 181.828 135.399 181.115C136.033 180.296 137.227 180.205 138.26 180.35L138.312 180.366C140.292 181.179 142.456 179.829 142.303 177.701C142.124 174.864 143.019 172.191 143.224 171.611Z" fill="url(#paint1_linear_407_1553)"/>
</g>
<path d="M116.62 187.665C117.502 186.45 119.015 185.599 120.465 185.93C121.914 186.262 123.289 187.65 124.578 186.954C126.342 186.006 125.092 182.522 127.955 182.264C128.551 182.224 129.149 182.328 129.697 182.568C130.905 183.063 132.796 183.622 133.726 182.507C134.273 181.851 134.234 180.851 134.756 180.171C135.36 179.381 136.511 179.281 137.492 179.433L137.541 179.448C139.434 180.235 141.506 178.928 141.358 176.875C141.168 174.141 142.032 171.565 142.219 171.006L145.807 160.279C148.984 150.707 143.876 140.35 134.376 137.104C124.859 133.913 114.567 139.051 111.341 148.605L105.684 165.474C102.632 174.684 107.242 184.691 116.2 188.303C116.328 188.082 116.468 187.869 116.62 187.665Z" fill="white"/>
<path opacity="0.2" d="M123.212 149.194C124.212 149.194 125.023 148.383 125.023 147.383C125.023 146.383 124.212 145.573 123.212 145.573C122.212 145.573 121.402 146.383 121.402 147.383C121.402 148.383 122.212 149.194 123.212 149.194Z" fill="black"/>
<path opacity="0.2" d="M134.8 152.815C135.8 152.815 136.611 152.004 136.611 151.004C136.611 150.004 135.8 149.194 134.8 149.194C133.8 149.194 132.99 150.004 132.99 151.004C132.99 152.004 133.8 152.815 134.8 152.815Z" fill="black"/>
<path d="M128.45 157.215C128.971 155.668 128.557 154.132 127.525 153.785C126.493 153.438 125.234 154.41 124.713 155.957C124.193 157.505 124.607 159.04 125.639 159.388C126.671 159.735 127.93 158.762 128.45 157.215Z" fill="#E0E0E0"/>
<path d="M167.753 150.642C169.353 150.642 170.65 149.345 170.65 147.745C170.65 146.145 169.353 144.848 167.753 144.848C166.153 144.848 164.856 146.145 164.856 147.745C164.856 149.345 166.153 150.642 167.753 150.642Z" fill="white"/>
<path d="M177.168 144.124C177.968 144.124 178.617 143.476 178.617 142.676C178.617 141.876 177.968 141.227 177.168 141.227C176.368 141.227 175.72 141.876 175.72 142.676C175.72 143.476 176.368 144.124 177.168 144.124Z" fill="white"/>
<g opacity="0.5">
<g opacity="0.3">
<path d="M146.845 52.8353L150.601 41.732C153.254 33.7934 150.384 25.061 143.533 20.2202L143.563 20.202C142.086 19.1659 140.465 18.3482 138.752 17.7743L138.7 17.7561L138.643 17.7379C136.98 17.1779 135.247 16.853 133.493 16.7729C132.873 16.7411 132.252 16.7411 131.632 16.7729C130.556 16.829 129.487 16.9762 128.436 17.2129C128.131 17.2797 127.826 17.3556 127.549 17.4375C127.272 17.5194 126.961 17.6074 126.672 17.7015C126.093 17.8927 125.523 18.1081 124.965 18.3539C124.685 18.4753 124.408 18.6028 124.137 18.7393C123.317 19.1425 122.528 19.605 121.775 20.1231C121.523 20.296 121.276 20.4751 121.032 20.6571C118.02 22.9382 115.766 26.0674 114.561 29.6394L108.656 47.1335C107.727 49.877 107.447 52.7975 107.839 55.6666C107.9 56.1066 107.976 56.5435 108.065 56.9775C108.153 57.4114 108.263 57.8393 108.369 58.2641C108.452 58.5463 108.537 58.8286 108.631 59.1077C108.772 59.5235 108.936 59.9392 109.092 60.3458C109.204 60.6159 109.323 60.886 109.448 61.153C109.695 61.6841 109.969 62.203 110.265 62.7097C110.56 63.2165 110.874 63.7111 111.227 64.1906C111.483 64.5487 111.754 64.9007 112.035 65.2405C112.413 65.6957 112.809 66.1357 113.229 66.5545C115.049 68.3818 117.227 69.8166 119.627 70.7695L119.731 70.8119C119.86 70.5842 120.002 70.3643 120.158 70.1534C121.072 68.9062 122.662 68.0293 124.176 68.357C124.286 68.3813 124.396 68.4146 124.505 68.448C125.273 68.7181 126.029 69.2006 126.769 69.4373C127.314 69.6812 127.94 69.6735 128.478 69.416C129.959 68.6301 129.411 66.1509 130.681 65.0645C130.74 65.0144 130.802 64.9678 130.867 64.9249C130.849 64.9029 130.833 64.8796 130.818 64.8551C131.799 64.2482 133.158 64.6518 134.289 65.0433C135.507 65.4712 137.098 65.7594 137.945 64.7671C138.518 64.0874 138.475 63.0526 139.02 62.3395C139.654 61.5202 140.848 61.4291 141.881 61.5748H141.933C143.914 62.3881 146.077 61.0377 145.924 58.9105C145.745 56.0884 146.64 53.4149 146.845 52.8353Z" fill="url(#paint2_linear_407_1553)"/>
</g>
<path d="M120.502 69.2187C121.392 68.0049 122.918 67.1552 124.381 67.486C125.843 67.8168 127.229 69.2036 128.53 68.5086C130.31 67.5619 129.048 64.0813 131.937 63.8233C132.539 63.7837 133.141 63.8877 133.695 64.1268C134.914 64.6214 136.821 65.1798 137.759 64.0661C138.311 63.4106 138.271 62.4123 138.798 61.7325C139.408 60.9436 140.568 60.8434 141.559 60.9951L141.607 61.0103C143.518 61.7963 145.608 60.4914 145.459 58.4401C145.267 55.709 146.138 53.1357 146.327 52.5773L149.947 41.8624C153.152 32.2999 147.998 21.9549 138.414 18.7119C128.814 15.5239 118.431 20.6572 115.176 30.2007L109.47 47.0515C106.391 56.2513 111.041 66.2475 120.079 69.856C120.207 69.6355 120.349 69.4227 120.502 69.2187Z" fill="white"/>
<path opacity="0.2" d="M127.248 30.492C128.343 30.492 129.231 29.6075 129.231 28.5165C129.231 27.4255 128.343 26.541 127.248 26.541C126.152 26.541 125.264 27.4255 125.264 28.5165C125.264 29.6075 126.152 30.492 127.248 30.492Z" fill="black"/>
<path opacity="0.2" d="M138.527 34.2701C139.622 34.2701 140.51 33.3856 140.51 32.2946C140.51 31.2035 139.622 30.3191 138.527 30.3191C137.431 30.3191 136.543 31.2035 136.543 32.2946C136.543 33.3856 137.431 34.2701 138.527 34.2701Z" fill="black"/>
</g>
<path opacity="0.1" d="M173.142 29.6938C173.707 31.8773 173.992 34.1238 173.99 36.3792C173.99 54.9978 154.508 70.0914 130.475 70.0914C110.805 70.0792 94.1861 59.9722 88.8105 46.1033C92.8035 61.5311 110.386 73.1484 131.478 73.1484C155.511 73.1484 174.995 58.0548 174.995 39.4362C174.989 36.1017 174.361 32.7976 173.142 29.6938Z" fill="black"/>
<g opacity="0.8">
<path d="M131.541 77.9435C181.003 77.9435 221.099 67.485 221.099 54.5837C221.099 41.6824 181.003 31.2239 131.541 31.2239C82.0794 31.2239 41.9829 41.6824 41.9829 54.5837C41.9829 67.485 82.0794 77.9435 131.541 77.9435Z" fill="url(#paint3_linear_407_1553)"/>
</g>
<path d="M131.541 31.8667C83.544 31.8667 44.6318 41.9168 44.6318 54.3182H218.45C218.45 41.9168 179.538 31.8667 131.541 31.8667Z" fill="white"/>
<path d="M131.541 77.494C179.538 77.494 218.45 67.4426 218.45 55.0425H44.6318C44.6318 67.4426 83.544 77.494 131.541 77.494Z" fill="white"/>
<path opacity="0.05" d="M131.541 77.494C179.538 77.494 218.45 67.4426 218.45 55.0425H44.6318C44.6318 67.4426 83.544 77.494 131.541 77.494Z" fill="black"/>
<rect opacity="0.05" x="90.2593" y="49.2485" width="82.5636" height="11.5879" rx="5.79394" fill="black"/>
<path opacity="0.5" d="M41.3785 17.4172C40.8234 17.1752 40.5374 16.5563 40.7131 15.9772C40.7267 15.934 40.7354 15.8894 40.7391 15.8442C40.7561 15.5806 40.5976 15.3372 40.3496 15.2459C40.1015 15.1545 39.8229 15.2369 39.6646 15.4485C39.6386 15.4849 39.6169 15.524 39.5997 15.5653C39.3586 16.121 38.7382 16.4072 38.1585 16.2302C38.1151 16.2169 38.0705 16.2082 38.0254 16.2042C37.7616 16.1872 37.518 16.3455 37.4265 16.5934C37.3351 16.8412 37.4176 17.1196 37.6294 17.2778C37.6652 17.3054 37.7045 17.3283 37.7462 17.3459C38.3013 17.5879 38.5873 18.2068 38.4117 18.7859C38.3984 18.8281 38.3896 18.8716 38.3857 18.9156C38.3671 19.1799 38.5249 19.4248 38.7734 19.517C39.0219 19.6093 39.3016 19.5269 39.4601 19.3146C39.4868 19.2775 39.5086 19.2372 39.525 19.1946C39.772 18.6452 40.3908 18.3667 40.9663 18.5459C41.0096 18.5592 41.0542 18.5679 41.0994 18.5719C41.3632 18.5889 41.6068 18.4305 41.6982 18.1827C41.7896 17.9349 41.7071 17.6564 41.4954 17.4983C41.4603 17.4661 41.421 17.4388 41.3785 17.4172Z" fill="#4D8AF0"/>
<path opacity="0.5" d="M195.641 110.12C195.09 109.872 194.811 109.255 194.989 108.68C195.003 108.637 195.012 108.592 195.015 108.547C195.032 108.284 194.873 108.04 194.624 107.949C194.375 107.858 194.096 107.94 193.937 108.152C193.911 108.188 193.889 108.227 193.872 108.268C193.63 108.824 193.007 109.11 192.425 108.933C192.382 108.92 192.337 108.911 192.291 108.907C192.027 108.89 191.782 109.049 191.69 109.296C191.599 109.544 191.681 109.823 191.894 109.981C191.93 110.009 191.969 110.031 192.011 110.049C192.562 110.297 192.841 110.914 192.663 111.489C192.65 111.531 192.641 111.575 192.637 111.619C192.618 111.883 192.777 112.128 193.026 112.22C193.275 112.312 193.556 112.23 193.715 112.018C193.742 111.981 193.764 111.94 193.78 111.898C194.028 111.348 194.649 111.07 195.227 111.249C195.271 111.262 195.315 111.271 195.361 111.275C195.625 111.292 195.87 111.134 195.962 110.886C196.054 110.638 195.971 110.36 195.758 110.201C195.723 110.169 195.683 110.142 195.641 110.12Z" fill="#4D8AF0"/>
<path opacity="0.5" d="M25.4449 152.851C24.8898 152.609 24.6039 151.99 24.7795 151.411C24.7931 151.367 24.8018 151.323 24.8055 151.278C24.8225 151.014 24.664 150.771 24.416 150.679C24.1679 150.588 23.8893 150.67 23.731 150.882C23.705 150.918 23.6833 150.957 23.6661 150.999C23.425 151.554 22.8046 151.841 22.2249 151.664C22.1816 151.65 22.1369 151.642 22.0918 151.638C21.828 151.621 21.5844 151.779 21.493 152.027C21.4015 152.275 21.484 152.553 21.6958 152.711C21.7316 152.739 21.7709 152.762 21.8126 152.779C22.3678 153.021 22.6537 153.64 22.4781 154.219C22.4648 154.261 22.4561 154.305 22.4521 154.349C22.4335 154.613 22.5914 154.858 22.8398 154.95C23.0883 155.043 23.368 154.96 23.5265 154.748C23.5532 154.711 23.575 154.671 23.5915 154.628C23.8384 154.079 24.4572 153.8 25.0327 153.979C25.076 153.993 25.1206 154.001 25.1658 154.005C25.4296 154.022 25.6732 153.864 25.7646 153.616C25.856 153.368 25.7735 153.09 25.5618 152.932C25.5267 152.899 25.4874 152.872 25.4449 152.851Z" fill="#4D8AF0"/>
<path opacity="0.5" d="M8.77146 52.9053C8.2227 52.6574 7.94442 52.0401 8.12226 51.4652C8.13589 51.422 8.1446 51.3774 8.14823 51.3322C8.16524 51.0687 8.00681 50.8252 7.75876 50.7339C7.51071 50.6425 7.23207 50.725 7.0738 50.9366C7.04781 50.9729 7.02603 51.0121 7.00888 51.0533C6.76777 51.6091 6.1474 51.8953 5.56766 51.7182C5.52433 51.7049 5.47972 51.6962 5.43457 51.6923C5.17076 51.6753 4.92715 51.8336 4.83572 52.0814C4.7443 52.3293 4.82681 52.6077 5.03856 52.7658C5.07442 52.7934 5.11369 52.8163 5.15542 52.8339C5.71052 53.076 5.99648 53.6948 5.82085 54.274C5.80753 54.3161 5.79883 54.3596 5.79488 54.4037C5.77623 54.6679 5.93413 54.9128 6.18262 55.0051C6.43112 55.0973 6.71074 55.0149 6.86931 54.8026C6.89598 54.7655 6.9178 54.7252 6.93423 54.6826C7.1812 54.1332 7.79998 53.8547 8.37545 54.0339C8.41878 54.0472 8.46339 54.0559 8.50854 54.0599C8.77235 54.0769 9.01596 53.9186 9.10739 53.6707C9.19881 53.4229 9.1163 53.1445 8.90455 52.9863C8.86446 52.9529 8.81961 52.9255 8.77146 52.9053Z" fill="#4D8AF0"/>
<path opacity="0.5" d="M192.745 2.1905C192.205 1.94462 191.932 1.33231 192.107 0.762029C192.12 0.719166 192.129 0.674917 192.132 0.630121C192.149 0.368643 191.993 0.127187 191.749 0.0365701C191.505 -0.0540464 191.231 0.027738 191.076 0.237613C191.05 0.273662 191.029 0.312518 191.012 0.353435C190.769 0.898428 190.161 1.17469 189.595 0.99689C189.552 0.98373 189.509 0.975104 189.464 0.971152C189.18 0.911032 188.895 1.06949 188.793 1.34391C188.692 1.61833 188.805 1.92624 189.059 2.06824C189.094 2.09566 189.133 2.11837 189.174 2.13581C189.713 2.38168 189.987 2.994 189.812 3.56428C189.799 3.60612 189.79 3.64927 189.787 3.69297C189.759 3.96569 189.92 4.22195 190.177 4.31232C190.434 4.40268 190.719 4.3035 190.865 4.07261C190.891 4.03583 190.913 3.99583 190.929 3.95357C191.172 3.40857 191.78 3.13231 192.346 3.31011C192.389 3.32327 192.432 3.3319 192.477 3.33585C192.736 3.35271 192.976 3.19568 193.066 2.94983C193.155 2.70397 193.074 2.4278 192.866 2.27093C192.83 2.23851 192.789 2.21143 192.745 2.1905Z" fill="#4D8AF0"/>
<g opacity="0.5">
<rect x="33.6831" y="77.7676" width="0.894652" height="5.47205" fill="#47E6B1"/>
<path d="M36.6655 80.0208V80.9864H31.5958V80.0208H36.6655Z" fill="#47E6B1"/>
</g>
<g opacity="0.5">
<rect x="252.404" y="53.8674" width="0.894652" height="5.47205" fill="#47E6B1"/>
<path d="M255.387 56.1206V57.0863H250.317V56.1206H255.387Z" fill="#47E6B1"/>
</g>
<g opacity="0.5">
<rect x="221.986" y="137.88" width="0.894652" height="5.47205" fill="#47E6B1"/>
<path d="M224.969 140.133V141.098H219.899V140.133H224.969Z" fill="#47E6B1"/>
</g>
<path opacity="0.5" d="M219.537 26.797C220.537 26.797 221.347 25.9864 221.347 24.9864C221.347 23.9864 220.537 23.1758 219.537 23.1758C218.537 23.1758 217.726 23.9864 217.726 24.9864C217.726 25.9864 218.537 26.797 219.537 26.797Z" fill="#F55F44"/>
<path opacity="0.5" d="M2.26373 5.79382C3.2637 5.79382 4.07434 4.98318 4.07434 3.98321C4.07434 2.98324 3.2637 2.17261 2.26373 2.17261C1.26376 2.17261 0.453125 2.98324 0.453125 3.98321C0.453125 4.98318 1.26376 5.79382 2.26373 5.79382Z" fill="#F55F44"/>
<path opacity="0.5" d="M57.3062 110.085C58.3062 110.085 59.1168 109.274 59.1168 108.274C59.1168 107.274 58.3062 106.464 57.3062 106.464C56.3062 106.464 55.4956 107.274 55.4956 108.274C55.4956 109.274 56.3062 110.085 57.3062 110.085Z" fill="#F55F44"/>
<path opacity="0.05" d="M71.4289 49.2485C77.0288 49.2485 81.5683 48.2758 81.5683 47.0758C81.5683 45.8758 77.0288 44.9031 71.4289 44.9031C65.8291 44.9031 61.2896 45.8758 61.2896 47.0758C61.2896 48.2758 65.8291 49.2485 71.4289 49.2485Z" fill="black"/>
<path opacity="0.05" d="M71.4289 65.1819C77.0288 65.1819 81.5683 64.2091 81.5683 63.0092C81.5683 61.8092 77.0288 60.8364 71.4289 60.8364C65.8291 60.8364 61.2896 61.8092 61.2896 63.0092C61.2896 64.2091 65.8291 65.1819 71.4289 65.1819Z" fill="black"/>
<path opacity="0.05" d="M188.756 49.2485C194.356 49.2485 198.895 48.2758 198.895 47.0758C198.895 45.8758 194.356 44.9031 188.756 44.9031C183.156 44.9031 178.617 45.8758 178.617 47.0758C178.617 48.2758 183.156 49.2485 188.756 49.2485Z" fill="black"/>
<path opacity="0.05" d="M188.756 65.1819C194.356 65.1819 198.895 64.2091 198.895 63.0092C198.895 61.8092 194.356 60.8364 188.756 60.8364C183.156 60.8364 178.617 61.8092 178.617 63.0092C178.617 64.2091 183.156 65.1819 188.756 65.1819Z" fill="black"/>
<path opacity="0.05" d="M131.541 39.8332C137.141 39.8332 141.681 38.8605 141.681 37.6605C141.681 36.4606 137.141 35.4878 131.541 35.4878C125.941 35.4878 121.402 36.4606 121.402 37.6605C121.402 38.8605 125.941 39.8332 131.541 39.8332Z" fill="black"/>
<path opacity="0.05" d="M138.783 18.106C144.383 18.106 148.923 17.1332 148.923 15.9332C148.923 14.7333 144.383 13.7605 138.783 13.7605C133.184 13.7605 128.644 14.7333 128.644 15.9332C128.644 17.1332 133.184 18.106 138.783 18.106Z" fill="black"/>
<path opacity="0.05" d="M119.229 26.7969C124.829 26.7969 129.368 25.8241 129.368 24.6241C129.368 23.4242 124.829 22.4514 119.229 22.4514C113.629 22.4514 109.089 23.4242 109.089 24.6241C109.089 25.8241 113.629 26.7969 119.229 26.7969Z" fill="black"/>
<path opacity="0.05" d="M157.614 30.4182C163.214 30.4182 167.753 29.4454 167.753 28.2455C167.753 27.0455 163.214 26.0728 157.614 26.0728C152.014 26.0728 147.475 27.0455 147.475 28.2455C147.475 29.4454 152.014 30.4182 157.614 30.4182Z" fill="black"/>
<path opacity="0.05" d="M131.541 71.6999C137.141 71.6999 141.681 70.7272 141.681 69.5272C141.681 68.3273 137.141 67.3545 131.541 67.3545C125.941 67.3545 121.402 68.3273 121.402 69.5272C121.402 70.7272 125.941 71.6999 131.541 71.6999Z" fill="black"/>
<path d="M82.6273 193.422C87.9143 193.422 90.5578 195.558 90.5578 199.831C90.5578 204.177 87.9143 206.349 82.6273 206.349H78.6078V212.542C78.6078 215.294 77.8473 217.394 76.3264 218.843C74.8055 220.291 72.8138 221.015 70.3514 221.015C67.889 221.015 65.8973 220.291 64.3764 218.843C62.8555 217.394 62.095 215.294 62.095 212.542V206.349H35.6964C33.4513 206.349 31.6769 205.698 30.3732 204.394C29.0696 203.018 28.4178 201.316 28.4178 199.288C28.4178 197.26 29.1058 195.232 30.4819 193.204L62.8555 146.925C63.7246 145.694 64.811 144.789 66.1146 144.209C67.4182 143.558 68.7943 143.232 70.2428 143.232C72.4879 143.232 74.4434 143.992 76.1091 145.513C77.7749 146.962 78.6078 148.989 78.6078 151.597V193.422H82.6273ZM45.4737 193.422H62.095V169.522L45.4737 193.422ZM127.488 221.341C118.218 221.341 111.12 217.974 106.195 211.238C101.343 204.503 98.9165 194.762 98.9165 182.015C98.9165 169.341 101.343 159.636 106.195 152.9C111.12 146.165 118.218 142.797 127.488 142.797C136.758 142.797 143.82 146.165 148.672 152.9C153.597 159.636 156.059 169.341 156.059 182.015C156.059 194.762 153.597 204.503 148.672 211.238C143.82 217.974 136.758 221.341 127.488 221.341ZM127.488 208.414C131.689 208.414 134.73 206.313 136.613 202.113C138.569 197.912 139.547 191.213 139.547 182.015C139.547 172.745 138.569 166.045 136.613 161.917C134.73 157.789 131.689 155.725 127.488 155.725C123.287 155.725 120.209 157.825 118.254 162.026C116.371 166.154 115.429 172.817 115.429 182.015C115.429 191.213 116.371 197.912 118.254 202.113C120.209 206.313 123.287 208.414 127.488 208.414ZM220.149 193.422C225.435 193.422 228.079 195.558 228.079 199.831C228.079 204.177 225.435 206.349 220.149 206.349H216.129V212.542C216.129 215.294 215.369 217.394 213.848 218.843C212.327 220.291 210.335 221.015 207.873 221.015C205.41 221.015 203.419 220.291 201.898 218.843C200.377 217.394 199.616 215.294 199.616 212.542V206.349H173.218C170.972 206.349 169.198 205.698 167.894 204.394C166.591 203.018 165.939 201.316 165.939 199.288C165.939 197.26 166.627 195.232 168.003 193.204L200.377 146.925C201.246 145.694 202.332 144.789 203.636 144.209C204.939 143.558 206.315 143.232 207.764 143.232C210.009 143.232 211.965 143.992 213.63 145.513C215.296 146.962 216.129 148.989 216.129 151.597V193.422H220.149ZM182.995 193.422H199.616V169.522L182.995 193.422Z" fill="#9366F9"/>
</g>
<defs>
<linearGradient id="paint0_linear_407_1553" x1="176.282" y1="74.5307" x2="176.282" y2="6.05054" gradientUnits="userSpaceOnUse">
<stop stop-color="#808080" stop-opacity="0.25"/>
<stop offset="0.54" stop-color="#808080" stop-opacity="0.12"/>
<stop offset="1" stop-color="#808080" stop-opacity="0.1"/>
</linearGradient>
<linearGradient id="paint1_linear_407_1553" x1="138.981" y1="202.624" x2="164.444" y2="152.953" gradientUnits="userSpaceOnUse">
<stop stop-color="#808080" stop-opacity="0.25"/>
<stop offset="0.54" stop-color="#808080" stop-opacity="0.12"/>
<stop offset="1" stop-color="#808080" stop-opacity="0.1"/>
</linearGradient>
<linearGradient id="paint2_linear_407_1553" x1="142.655" y1="83.5576" x2="168.118" y2="33.8869" gradientUnits="userSpaceOnUse">
<stop stop-color="#808080" stop-opacity="0.25"/>
<stop offset="0.54" stop-color="#808080" stop-opacity="0.12"/>
<stop offset="1" stop-color="#808080" stop-opacity="0.1"/>
</linearGradient>
<linearGradient id="paint3_linear_407_1553" x1="221.099" y1="77.9435" x2="221.099" y2="31.2239" gradientUnits="userSpaceOnUse">
<stop stop-color="#808080" stop-opacity="0.25"/>
<stop offset="0.54" stop-color="#808080" stop-opacity="0.12"/>
<stop offset="1" stop-color="#808080" stop-opacity="0.1"/>
</linearGradient>
<clipPath id="clip0_407_1553">
<rect width="255.658" height="239" fill="white"/>
</clipPath>
</defs>
</svg>
